<mxfile host="app.diagrams.net" modified="2022-12-22T04:51:19.402Z" agent="5.0 (Windows NT 10.0; Win64; x64) AppleWebKit/537.36 (KHTML, like Gecko) Chrome/108.0.0.0 Safari/537.36 Edg/108.0.1462.54" etag="wBgIq5wt6gZzW083qafH" version="20.5.3" type="github">
  <diagram id="C5RBs43oDa-KdzZeNtuy" name="Page-1">
    <mxGraphModel dx="990" dy="571" grid="1" gridSize="10" guides="1" tooltips="1" connect="1" arrows="1" fold="1" page="1" pageScale="1" pageWidth="827" pageHeight="1169" math="0" shadow="0">
      <root>
        <mxCell id="WIyWlLk6GJQsqaUBKTNV-0" />
        <mxCell id="WIyWlLk6GJQsqaUBKTNV-1" parent="WIyWlLk6GJQsqaUBKTNV-0" />
        <mxCell id="eagQtBBMsQWEA476CmqX-2" value="" style="edgeStyle=orthogonalEdgeStyle;rounded=0;orthogonalLoop=1;jettySize=auto;html=1;" edge="1" parent="WIyWlLk6GJQsqaUBKTNV-1" source="eagQtBBMsQWEA476CmqX-0" target="eagQtBBMsQWEA476CmqX-1">
          <mxGeometry relative="1" as="geometry" />
        </mxCell>
        <mxCell id="eagQtBBMsQWEA476CmqX-0" value="START" style="ellipse;whiteSpace=wrap;html=1;" vertex="1" parent="WIyWlLk6GJQsqaUBKTNV-1">
          <mxGeometry x="135" y="10" width="106" height="40" as="geometry" />
        </mxCell>
        <mxCell id="eagQtBBMsQWEA476CmqX-4" value="" style="edgeStyle=orthogonalEdgeStyle;rounded=0;orthogonalLoop=1;jettySize=auto;html=1;" edge="1" parent="WIyWlLk6GJQsqaUBKTNV-1" source="eagQtBBMsQWEA476CmqX-1" target="eagQtBBMsQWEA476CmqX-3">
          <mxGeometry relative="1" as="geometry" />
        </mxCell>
        <mxCell id="eagQtBBMsQWEA476CmqX-1" value="Initialise main_menu dictionary -&amp;gt; &lt;br&gt;keys: menu options&lt;br&gt;values: tuple where first index is menu option description, second index is submenu function to execute" style="whiteSpace=wrap;html=1;" vertex="1" parent="WIyWlLk6GJQsqaUBKTNV-1">
          <mxGeometry x="20" y="90" width="336" height="60" as="geometry" />
        </mxCell>
        <mxCell id="eagQtBBMsQWEA476CmqX-6" value="" style="edgeStyle=orthogonalEdgeStyle;rounded=0;orthogonalLoop=1;jettySize=auto;html=1;" edge="1" parent="WIyWlLk6GJQsqaUBKTNV-1" source="eagQtBBMsQWEA476CmqX-3" target="eagQtBBMsQWEA476CmqX-5">
          <mxGeometry relative="1" as="geometry" />
        </mxCell>
        <mxCell id="eagQtBBMsQWEA476CmqX-3" value="set loop condition to True (run infinitely)" style="rounded=0;whiteSpace=wrap;html=1;" vertex="1" parent="WIyWlLk6GJQsqaUBKTNV-1">
          <mxGeometry x="77" y="190" width="222" height="50" as="geometry" />
        </mxCell>
        <mxCell id="eagQtBBMsQWEA476CmqX-5" value="Infinite While Loop" style="rhombus;whiteSpace=wrap;html=1;" vertex="1" parent="WIyWlLk6GJQsqaUBKTNV-1">
          <mxGeometry x="108" y="280" width="160" height="90" as="geometry" />
        </mxCell>
      </root>
    </mxGraphModel>
  </diagram>
</mxfile>
